General

Format                           : MPEG-4
Format profile                   : Base Media
Codec ID                         : isom
File size                        : 60.3 MiB
Duration                         : 4mn 23s
Overall bit rate                 : 1 919 Kbps
Encoded date                     : UTC 2012-04-04 03:48:56
Tagged date                      : UTC 2012-04-04 03:48:56

Video
ID                               : 1
Format                           : AVC
Format/Info                      : Advanced Video Codec
Format profile                   : High@L3.0
Format settings, CABAC           : Yes
Format settings, ReFrames        : 2 frames
Codec ID                         : avc1
Codec ID/Info                    : Advanced Video Coding
Duration                         : 4mn 23s
Bit rate mode                    : Variable
Bit rate                         : 1 868 Kbps
Maximum bit rate                 : 3 185 Kbps
Width                            : 720 pixels
Height                           : 480 pixels
Display aspect ratio             : 16:9
Original display aspect ratio    : 16:9
Frame rate mode                  : Constant
Frame rate                       : 23.976 fps
Standard                         : NTSC
Color space                      : YUV
Chroma subsampling               : 4:2:0
Bit depth                        : 8 bits
Scan type                        : Progressive
Bits/(Pixel*Frame)               : 0.225
Stream size                      : 58.2 MiB (97%)


Audio
ID                               : 2
Format                           : AAC
Format/Info                      : Advanced Audio Codec
Format profile                   : LC
Codec ID                         : 40
Duration                         : 4mn 23s
Bit rate mode                    : Variable
Bit rate                         : 59.0 Kbps
Maximum bit rate                 : 73.8 Kbps
Channel(s)                       : 2 channels
Channel positions                : Front: L R
Sampling rate                    : 44.1 KHz
Compression mode                 : Lossy
Stream size                      : 1.85 MiB (3%)

